<?xml version="1.0" encoding="UTF-8" standalone="no"?>
<!-- Generator: Adobe Illustrator 16.0.0, SVG Export Plug-In . SVG Version: 6.00 Build 0)  -->

<svg
   xmlns:dc="http://purl.org/dc/elements/1.1/"
   xmlns:cc="http://creativecommons.org/ns#"
   xmlns:rdf="http://www.w3.org/1999/02/22-rdf-syntax-ns#"
   xmlns:svg="http://www.w3.org/2000/svg"
   xmlns="http://www.w3.org/2000/svg"
   xmlns:sodipodi="http://sodipodi.sourceforge.net/DTD/sodipodi-0.dtd"
   xmlns:inkscape="http://www.inkscape.org/namespaces/inkscape"
   version="1.1"
   id="Capa_1"
   x="0px"
   y="0px"
   width="15"
   height="19.431585"
   viewBox="0 0 15.000001 19.431586"
   xml:space="preserve"
   inkscape:version="0.91 r13725"
   sodipodi:docname="clipboard-paste-option.svg"><metadata
     id="metadata41"><rdf:RDF><cc:Work
         rdf:about=""><dc:format>image/svg+xml</dc:format><dc:type
           rdf:resource="http://purl.org/dc/dcmitype/StillImage" /><dc:title></dc:title></cc:Work></rdf:RDF></metadata><defs
     id="defs39" /><sodipodi:namedview
     pagecolor="#ffffff"
     bordercolor="#666666"
     borderopacity="1"
     objecttolerance="10"
     gridtolerance="10"
     guidetolerance="10"
     inkscape:pageopacity="0"
     inkscape:pageshadow="2"
     inkscape:window-width="1280"
     inkscape:window-height="776"
     id="namedview37"
     showgrid="false"
     fit-margin-top="0"
     fit-margin-left="0"
     fit-margin-right="0"
     fit-margin-bottom="0"
     inkscape:zoom="2.8223589"
     inkscape:cx="32.273998"
     inkscape:cy="41.809002"
     inkscape:window-x="0"
     inkscape:window-y="24"
     inkscape:window-maximized="1"
     inkscape:current-layer="Capa_1" /><g
     id="g3"
     transform="matrix(0.2323852,0,0,0.2323852,-2.2157929,0)"><path
       d="m 12.713,72.139 27.678,0 0,2.723 -27.678,0 c -1.752,0 -3.178,-1.426 -3.178,-3.178 l 0,-63.541 c 0,-1.752 1.426,-3.177 3.178,-3.177 l 10.171,0 -0.367,1.656 c -0.031,0.139 -0.046,0.266 -0.046,0.386 l 0,7.262 c 0,1.001 0.814,1.815 1.815,1.815 l 24.962,0 c 1.001,0 1.816,-0.814 1.816,-1.815 l 0,-7.262 c 0,-0.121 -0.017,-0.247 -0.047,-0.386 l -0.367,-1.656 10.172,0 C 62.575,4.966 64,6.391 64,8.143 l 0,29.163 -0.354,-0.308 -2.369,0 0,-28.855 c 0,-0.25 -0.202,-0.454 -0.452,-0.454 l -7.035,0 0,6.581 c 0,2.502 -2.036,4.539 -4.539,4.539 l -24.963,0 c -2.503,0 -4.539,-2.036 -4.539,-4.539 l 0,-6.581 -7.034,0 c -0.25,0 -0.454,0.204 -0.454,0.454 l 0,63.541 c -10e-4,0.25 0.202,0.455 0.452,0.455 z m 13.071,-57.759 21.97,0 c 0.884,0 1.599,-0.715 1.599,-1.598 l 0,-6.391 c 0,-0.883 -0.715,-1.598 -1.599,-1.598 l -5.991,0 C 41.763,2.146 39.514,0 36.742,0 33.968,0 31.72,2.146 31.72,4.793 l -5.935,0 c -0.883,0 -1.597,0.715 -1.597,1.598 l 0,6.391 c -10e-4,0.882 0.712,1.598 1.596,1.598 z m 48.299,32.046 0,34.825 c 0,1.306 -1.062,2.367 -2.365,2.367 l -27.333,0 c -1.305,0 -2.366,-1.062 -2.366,-2.367 l 0,-40.116 c 0,-1.306 1.062,-2.367 2.366,-2.367 l 20.889,0 8.809,7.658 z m -8.268,-0.615 4.935,0 -4.935,-4.289 0,4.289 z m 6.543,1.725 -8.269,0 0,-7.044 -19.704,0 c -0.354,0 -0.642,0.288 -0.642,0.643 l 0,40.116 c 0,0.354 0.287,0.644 0.642,0.644 l 27.332,0 c 0.354,0 0.641,-0.289 0.641,-0.644 l 0,-33.715 z M 46.623,55.73 c 0,0.713 0.581,1.293 1.293,1.293 l 20.271,0 c 0.713,0 1.293,-0.58 1.293,-1.293 0,-0.715 -0.58,-1.295 -1.293,-1.295 l -20.271,0 c -0.711,10e-4 -1.293,0.581 -1.293,1.295 z m 21.563,6.325 -20.27,0 c -0.712,0 -1.293,0.58 -1.293,1.295 0,0.713 0.581,1.293 1.293,1.293 l 20.271,0 c 0.713,0 1.293,-0.58 1.293,-1.293 -0.001,-0.715 -0.581,-1.295 -1.294,-1.295 z m 0,7.227 -20.27,0 c -0.712,0 -1.293,0.579 -1.293,1.294 0,0.714 0.581,1.293 1.293,1.293 l 20.271,0 c 0.713,0 1.293,-0.579 1.293,-1.293 -0.001,-0.715 -0.581,-1.294 -1.294,-1.294 z"
       id="path5"
       inkscape:connector-curvature="0" /></g><g
     id="g7"
     transform="translate(-9.535,-64.186414)" /><g
     id="g9"
     transform="translate(-9.535,-64.186414)" /><g
     id="g11"
     transform="translate(-9.535,-64.186414)" /><g
     id="g13"
     transform="translate(-9.535,-64.186414)" /><g
     id="g15"
     transform="translate(-9.535,-64.186414)" /><g
     id="g17"
     transform="translate(-9.535,-64.186414)" /><g
     id="g19"
     transform="translate(-9.535,-64.186414)" /><g
     id="g21"
     transform="translate(-9.535,-64.186414)" /><g
     id="g23"
     transform="translate(-9.535,-64.186414)" /><g
     id="g25"
     transform="translate(-9.535,-64.186414)" /><g
     id="g27"
     transform="translate(-9.535,-64.186414)" /><g
     id="g29"
     transform="translate(-9.535,-64.186414)" /><g
     id="g31"
     transform="translate(-9.535,-64.186414)" /><g
     id="g33"
     transform="translate(-9.535,-64.186414)" /><g
     id="g35"
     transform="translate(-9.535,-64.186414)" /></svg>